<svg id="Layer_1" data-name="Layer 1" xmlns="http://www.w3.org/2000/svg" viewBox="0 0 563.33 286.58"><defs><style>.cls-1{font-size:215.19px;font-family:SegoeScript, Segoe Script;}.cls-2{letter-spacing:-0.1em;}</style></defs><text class="cls-1" transform="translate(0 180.04)"><tspan class="cls-2">G</tspan><tspan x="151.33" y="0">uía</tspan></text><path d="M621.06,190.37c-.74-.3,1.08.56,1.31.69a20.55,20.55,0,0,1,2,1.3c-.64-.47.7.6.89.77a27,27,0,0,1,1.91,2q.4.45.78.93c-.17-.23-.47-.72.16.25.4.6.8,1.19,1.16,1.81a19,19,0,0,1,1.88,3.85c2.49,6.92,2.13,14.44.7,21.54-1.47,7.26-3.34,13.85-7.19,19.84a19,19,0,0,1-2.49,3.26c-.59.64-1.21,1.26-1.85,1.85-.28.26-1.71,1.44-1.14,1a28.44,28.44,0,0,1-7.53,4.09c-6.54,2.29-11.57,2.62-18.56,2.54s-14.17-.94-21.22-1.73c-17.15-1.94-34.28-4.1-51.41-6.19-34.22-4.18-68.52-8.11-103-9.5-32.09-1.3-64.26-.23-96,4.56-31,4.67-61.37,13.17-89.73,26.57q-5.31,2.52-10.5,5.25a6,6,0,1,0,6.05,10.37c28-14.77,58.71-24.1,90.1-29.45s63.95-6.57,96.05-5.46c35.57,1.23,70.95,5.26,106.25,9.56,17.54,2.14,35.07,4.35,52.62,6.33,14,1.58,29,3.49,42.57-1.28a38.7,38.7,0,0,0,18.46-13.28c4.56-6,7.25-13.37,9.09-20.64,4-15.67,4.3-34.37-8.42-46.31a30.28,30.28,0,0,0-9.75-6c-3-1.22-6.59,1.31-7.38,4.19-.94,3.42,1.17,6.16,4.19,7.38Z" transform="translate(-81.52 -35.41)"/><path d="M622.39,190.67a6,6,0,1,0-6-6,6.07,6.07,0,0,0,6,6Z" transform="translate(-81.52 -35.41)"/><path d="M620.52,182.25a2.41,2.41,0,0,1,.37-.34l-.3.23a2.9,2.9,0,0,1,.54-.31l-1.51-2.59-.2.1,1.51,2.59a1.59,1.59,0,0,1,.27-.12l-.36.15a4.59,4.59,0,0,1,.48-.17,1.56,1.56,0,0,0,.9-.69,1.5,1.5,0,0,0-1.69-2.21,6.51,6.51,0,0,0-.78.27,3.74,3.74,0,0,0-1,.6l-.23.3a1.16,1.16,0,0,0-.18.56,1.46,1.46,0,0,0,.18,1,1.56,1.56,0,0,0,1.69.69,9,9,0,0,0,1.64-.75l-.36.15a2.07,2.07,0,0,1,.54-.15l-.4,0a5.47,5.47,0,0,1,1.4,0l-.4-.06.36.08a1.5,1.5,0,0,0,1.77-.87,1.47,1.47,0,0,0,.07-1,1.43,1.43,0,0,0-.69-.9,4.69,4.69,0,0,0-1.51-.4,4.3,4.3,0,0,0-1.24.09,3.94,3.94,0,0,0-1.15.45,7,7,0,0,0-1,.79l.3-.23-.09.06.36-.15-.1,0,.4-.06h0l.4.06-.05,0,.36.15,0,0,.54.53,0,0,.15.36v-.05l.05.4v0l-.05.4a.16.16,0,0,1,0-.1l-.16.36.08-.14-.23.31a1.21,1.21,0,0,1,.16-.16l-.3.24a1,1,0,0,1,.24-.14l-.36.15a2.52,2.52,0,0,1,.67-.16l-.4.05a5.64,5.64,0,0,1,1.48,0l-.4-.06a4,4,0,0,1,.68.17,1.33,1.33,0,0,0,.79,0,1.53,1.53,0,0,0,.9-2.2,2.65,2.65,0,0,0-2.58-1.18,5.39,5.39,0,0,0-2.46.92l1.82.23,0,0,.24.3,0,0,.15.35v0l.05.4v-.05l-.06.4,0,0-.16.36,0,0-.24.3,0,0-.3.23a.19.19,0,0,1,.09,0l-.36.15a5.86,5.86,0,0,1,1.35-.36l-.4.05a3.09,3.09,0,0,1,.68,0l-.4-3-.3.05.4-.05c-.32,0-.63,0-.94,0a3.15,3.15,0,0,0-1.42.33,3.59,3.59,0,0,0-1.46,1.53,1.51,1.51,0,0,0,2.06,2.06,13.65,13.65,0,0,1,1.31-.69l-.35.15a5.7,5.7,0,0,1,.73-.25,1.5,1.5,0,0,0-.8-2.89,10.44,10.44,0,0,0-2.41,1.09l2.06,2.05a2.69,2.69,0,0,1,.28-.46l-.23.3a2.22,2.22,0,0,1,.37-.38l-.3.24a1.83,1.83,0,0,1,.3-.18l-.36.15a1.46,1.46,0,0,1,.36-.09l-.4.05c.26,0,.52,0,.78,0a8.36,8.36,0,0,0,1.12-.14,1.44,1.44,0,0,0,.89-.69,1.5,1.5,0,0,0,.18-1,1.4,1.4,0,0,0-.41-.86,1.66,1.66,0,0,0-1.06-.44,5.26,5.26,0,0,0-2,.29,2.65,2.65,0,0,0-1.18.6,1.62,1.62,0,0,0,.89,2.77,1.44,1.44,0,0,0,.95-.18,5.41,5.41,0,0,1,.85-.47l-.36.15a3.24,3.24,0,0,1,.86-.24l-.4.05a2.9,2.9,0,0,1,.51,0l-.4,0a1.78,1.78,0,0,1,.38.1l-.36-.15.19.1-.31-.23a.75.75,0,0,1,.16.15l-.24-.31.06.09,1.69-2.2a5,5,0,0,0-1.91-.26,5.51,5.51,0,0,0-1.89.35,2,2,0,0,0-1.2,2.74,1.66,1.66,0,0,0,2,.74,3.76,3.76,0,0,0,1.16-.8l-.3.23a3.25,3.25,0,0,1,.57-.33l-.36.15a2.93,2.93,0,0,1,.7-.2l-.4.06a3,3,0,0,1,.73,0l-.4-.05a2.88,2.88,0,0,1,.64.17l-.36-.15.06,0,1.15-2.74a6,6,0,0,0-1.27-.18,5.47,5.47,0,0,0-1.28.06,8.6,8.6,0,0,0-1.87.81l.36-.15a1.58,1.58,0,0,1-.31.09l1.46,2.51.05,0-.3.24a1.86,1.86,0,0,1,.43-.25l-.36.15a4.62,4.62,0,0,1,.6-.19l-.79-2.9a7.59,7.59,0,0,0-1.11.45,1.5,1.5,0,0,0-.69.89,1.5,1.5,0,0,0,1,1.85,1.7,1.7,0,0,0,1.15-.15l.2-.1a1.46,1.46,0,0,0,.69-.9,1.5,1.5,0,0,0-1-1.84l-.4-.05a1.44,1.44,0,0,0-.76.2,3.59,3.59,0,0,0-1.22.89,1.58,1.58,0,0,0-.44,1.06,1.5,1.5,0,0,0,.44,1.06,1.46,1.46,0,0,0,1.06.44,1.47,1.47,0,0,0,1.06-.44Z" transform="translate(-81.52 -35.41)"/></svg>